<svg id="Layer_1" data-name="Layer 1" xmlns="http://www.w3.org/2000/svg" xmlns:xlink="http://www.w3.org/1999/xlink" viewBox="0 0 355 355"><defs><style>.cls-1{fill:url(#linear-gradient);}.cls-2{fill:#fff;}</style><linearGradient id="linear-gradient" x1="177.5" y1="355" x2="177.5" gradientUnits="userSpaceOnUse"><stop offset="0" stop-color="#2574ab"/><stop offset="1" stop-color="#3dc5f1"/></linearGradient></defs><title>s2</title><circle class="cls-1" cx="177.5" cy="177.5" r="177.5"/><path class="cls-2" d="M283.18,348.75c.45-1.65.72-2.94,1.14-4.19,4.69-13.94-4.59-27.07-19.25-27.13-13.91-.06-27.81,0-41.72,0-1,0-2.26-.2-3,.29-1.32.86-3.19,2.13-3.26,3.31a5.5,5.5,0,0,0,2.45,4.23c1.67.92,3.93,1,5.94,1,13.1.15,26.21.16,39.32.28,7.54.07,11.77,4.63,11.47,12.16a10.45,10.45,0,0,1-10.32,10.21c-7.29.13-14.59,0-21.89,0q-27.87,0-55.74,0c-13,0-17.65-11.83-14.15-20.86A17.67,17.67,0,0,1,181.5,320c13.3-7.69,26.87-14.92,40.4-22.21,6.93-3.73,7.47-4.95,6.48-12.71-1-8.24-1.64-16.53-2.51-24.79-.18-1.71-.67-3.38-1-5.07l-1.16-.1c-1.88,3.82-3.79,7.62-5.63,11.46-1.77,3.69-2.91,7.82-5.31,11a52.82,52.82,0,0,1-10.93,11.06c-8.58,6.19-17.59,11.79-26.54,17.45a19.42,19.42,0,0,1-6.59,2.4c-2.6.51-5.5-.16-6.3-2.85a13.28,13.28,0,0,1,.08-7.75c.67-1.9,2.84-3.49,4.68-4.73q12-8.13,24.27-15.95a19.27,19.27,0,0,0,8.11-10.17c4.31-12.1,8.85-24.12,13.23-36.2,3.89-10.75,11.27-17,22.89-17.24,12.29-.22,24.61-.41,36.87.25,10.08.55,16.66,6.74,20.16,16,4.61,12.24,9.13,24.51,13.46,36.85a19.31,19.31,0,0,0,8.22,10.44c8.46,5.38,16.82,10.92,25,16.71a15.38,15.38,0,0,1,5.1,6.43c1.08,2.65-.13,5.51-2.67,7.16a8.27,8.27,0,0,1-9.36-.13c-5.87-3.71-11.63-7.61-17.43-11.43-4.66-3.07-9.27-6.21-14-9.2a23.05,23.05,0,0,1-8.94-10.48c-2.77-6.24-5.71-12.4-8.67-18.55a10,10,0,0,0-1.94-2.13,8.17,8.17,0,0,0-1.21,2.44q-1.72,15.26-3.27,30.54c-.39,3.91,1.77,6.36,5.05,8.13q19.38,10.48,38.7,21.06c1.6.87,3.21,1.74,4.72,2.75A15.45,15.45,0,0,1,332,338.45c-2,6.78-7.13,10.47-15,10.51-10,.05-20,0-30.07,0C285.86,349,284.75,348.84,283.18,348.75Z" transform="translate(-75 -75)"/><path class="cls-2" d="M253.3,157.6a23.18,23.18,0,0,1,23.19,23.56,23.57,23.57,0,1,1-47.14-.45C229.43,167.43,239.68,157.54,253.3,157.6Z" transform="translate(-75 -75)"/></svg>