<svg id="Layer_1" data-name="Layer 1" xmlns="http://www.w3.org/2000/svg" xmlns:xlink="http://www.w3.org/1999/xlink" viewBox="0 0 355 355"><defs><style>.cls-1{fill:url(#linear-gradient);}.cls-2{fill:#fff;}</style><linearGradient id="linear-gradient" x1="177.5" y1="355" x2="177.5" gradientUnits="userSpaceOnUse"><stop offset="0" stop-color="#2574ab"/><stop offset="1" stop-color="#3dc5f1"/></linearGradient></defs><title>s3</title><circle class="cls-1" cx="177.5" cy="177.5" r="177.5"/><path class="cls-2" d="M238.2,271.52c-.37-.11-.64.14-.91.27-5,2.37-8.9-.28-11-4-1.36-2.41-1.19-5-.79-7.63.1-.67.22-1.34.35-2.13-.62.26-.75.74-1,1.12-2.21,3.53-4.27,7.16-6.76,10.51a14.67,14.67,0,0,1-2.73,2.94,3.87,3.87,0,0,1-5.51-.14,21.91,21.91,0,0,1-3.84-4.7c-.83-1.25-.83-1.25-1.76,0-1.18,1.56-2.32,3.16-3.54,4.68-2.68,3.34-5.77,3.68-9.2,1.12-2.83-2.12-5.35-6.77-3.25-11.55,1.92-4.39,4.12-8.63,6.45-12.81,2.15-3.85,1.63-6.36-1.92-9-1.68-1.25-3.32-2.58-4.93-3.93-2.24-1.89-2.63-3.69-1.42-6.38a11.15,11.15,0,0,1,7.07-6.6,3.84,3.84,0,0,1,4.35,1.08,4.34,4.34,0,0,1,1,4.81,16.08,16.08,0,0,0-1.55,6.94,10.58,10.58,0,0,0,4.49,8.34c2.67,1.93,2.58,4.27,1.94,6.91a21.35,21.35,0,0,1-2.69,5.56c-.88,1.5-1.78,3-2.63,4.51a16.3,16.3,0,0,0-1.77,7.32c0,.83.28,1,1,.72a11.74,11.74,0,0,0,6.9-6.69c1.33-2.94,2.2-6.06,3.56-9a40.53,40.53,0,0,1,10.89-14.73,12,12,0,0,1,5.41-2.88c3.24-.59,5.68.93,7.59,3.28a33.07,33.07,0,0,0,6,5.76c3.2,2.39,3.73,4.83,1.84,8.36-2,3.71-4,7.38-5.62,11.28-.65,1.56-.08,2.93.23,4.34.14.66.58.08.78-.12a42.57,42.57,0,0,0,5-6.13,67.29,67.29,0,0,0,6.36-12.47c2.26-5.57,4.17-11.29,6.9-16.66.58-1.15-.38-.89-.89-.9-5.58,0-11.17,0-16.75,0h-3.26c-.48,0-1,0-1.13-.58s.55-.63.94-.78c2.55-.94,5.26-1,7.92-1.25,4-.4,7.93-.74,11.87-1.35,2.33-.36,3.87-1.88,5.17-3.68,3.27-4.52,6.3-9.22,9.23-14,2.12-3.43,5.34-4.3,8.88-4.8a2.82,2.82,0,0,1,2.29.79c2.43,2.09,3.75,5.69,1,8.94a79.43,79.43,0,0,1-9.52,9.36,14.68,14.68,0,0,1-3.57,1.83c-.22.1-.55.16-.53.47s.35.32.57.41c4.11,1.72,7.21.92,10.1-2.68,3.24-4,6.67-7.93,10.05-11.86,2.58-3,5.93-2.19,8.16-.24a2.59,2.59,0,0,1,.75,2,12.9,12.9,0,0,1-2,7.45c-.73,1.17-1.46,2.33-2.19,3.51-.14.23-.42.48-.22.78s.46.13.71.12c6.21-.43,12.43-.85,18.64-1.32.91-.07,1,.2.76,1-.89,3.19-3,4.68-6.79,4.72-5.11,0-10.22.06-15.33.11-1.48,0-3,.08-4.45.13a3.71,3.71,0,0,0-3.26,1.84,18.79,18.79,0,0,0-1.57,3c.4.21.58-.12.8-.25.74-.46,1.47-.94,2.19-1.42a.74.74,0,0,1,1,.15c.41.39-.1.56-.28.76a58.72,58.72,0,0,0-9.09,12.29,34,34,0,0,0-4,18.67c0,.28-.06.64.21.8s.59-.16.82-.35a32,32,0,0,0,4.29-4,12.68,12.68,0,0,0,3-6.07c1.55-8.12,5.94-14.46,12.34-19.48a9.5,9.5,0,0,1,8.24-2.11c3.84.86,7.43,6.56,6.15,10a6,6,0,0,1-1.78,2.67,115.47,115.47,0,0,1-12.69,9.15,7.79,7.79,0,0,0-3.92,5.59,3.55,3.55,0,0,0,3.76,4.37,5.39,5.39,0,0,0,4.07-1.71,237.65,237.65,0,0,0,18.79-22.39c.88-1.2,1.82-2.35,2.8-3.47,2.82-3.23,6.29-4.56,10.52-3.34.81.23,1.09-.16,1.42-.74,2.49-4.46,5-8.9,7.5-13.37a44,44,0,0,1,12.17-14c.26-.2.51-.41.78-.59,2-1.38,3.89-1.1,5.28.91a11,11,0,0,1,1.42,10,15.57,15.57,0,0,1-2,4.11c-4.88,7.24-9.5,14.68-15.31,21.24-4.06,4.58-5.75,10-6.12,15.9-.14,2.31-.39,4.64-.3,6.94a23.13,23.13,0,0,0,1.69,8.7,6.85,6.85,0,0,0,9.64,3.16,10.43,10.43,0,0,0,2.37-1.72c6.16-6,10.47-13,11.81-21.64a29.28,29.28,0,0,0-.22-8.43c-.13-1-.23-1.94-.36-2.91-.08-.62.14-.92.78-1,4.55-.76,9.39,2,9.58,7.44A21.66,21.66,0,0,1,362.9,263a49.16,49.16,0,0,1-20.32,18.33c-5.52,2.64-10.88,1.58-14.59-2.79a19.18,19.18,0,0,1-3.22-5.88c-.85-2.31-1.45-4.71-2.17-7.06-.32-1.06-.42-1.08-1.24-.3a53.21,53.21,0,0,1-8.07,6.59c-3.09,2-4.06,1.84-6.37-1a32.29,32.29,0,0,1-3-4.54,6.58,6.58,0,0,1-.43-3.3c0-.38.3-.93-.12-1.1s-.72.37-1,.65c-2.4,2.31-4.74,4.69-7.32,6.81a20.37,20.37,0,0,1-4.86,3.06,7.52,7.52,0,0,1-9.52-2.35,17.72,17.72,0,0,1-2.56-4.4c-.32-.78-.6-.86-1.14-.18-1.18,1.47-2.4,2.9-3.61,4.35a10.49,10.49,0,0,1-2.15,2,5.24,5.24,0,0,1-7.59-1.2,14.3,14.3,0,0,1-2.51-6.52c-.17-.93-.34-1.85-.49-2.78s-.36-1.09-1.15-.48c-1.6,1.25-3.26,2.42-4.88,3.64-.33.25-.62.36-.93,0s0-.62.23-.81c5.58-4.33,8.53-10.4,11.12-16.72,1.77-4.33,3.59-8.63,5.42-12.93.36-.83.29-1.17-.71-1.15-2.68,0-5.37,0-8,0-.94,0-1.31.26-.89,1.2a5.09,5.09,0,0,1-.18,4.18c-6.22,15.65-12.26,31.38-19,46.83-2.32,5.33-4.76,10.58-8.54,15.08a28.25,28.25,0,0,1-19.58,10.5,14.91,14.91,0,0,1-6.94-1c-6-2.37-8-8.12-4.92-13.79a26.34,26.34,0,0,1,4.77-6c2-2,4-3.85,6.06-5.78a2.47,2.47,0,0,0,.85-1.08,10.7,10.7,0,0,0-3.07.32,208.73,208.73,0,0,0-20.77,3.48c-7.87,1.9-15.24,4.88-21.66,9.93-.61.48-.94.38-1.42-.17-2.71-3.06-2.43-5.95.79-8.47,3.7-2.89,8-4.26,12.51-5.28a164.79,164.79,0,0,1,22.76-3.35c8.77-.75,17.57-1,26.35-1.67.06,0,.13,0,.35.13L227.37,279c-4.12,2.58-8.27,5.1-11.85,8.43-3.79,3.53-6.61,7.59-7.26,12.88a11.51,11.51,0,0,0,.58,4.92,1.88,1.88,0,0,0,1.53,1.38,8.86,8.86,0,0,0,7.91-1.84c6.35-5.36,10.46-12.23,14-19.59q3-6.24,5.67-12.59C238,272.28,238.33,272,238.2,271.52Zm86.58-26.31a19.42,19.42,0,0,0-3.39,3.06c-4.7,4.87-8,10.45-8.7,17.33-.09.89.11,1,.9.72a14.57,14.57,0,0,0,8.1-7.17C323.85,254.76,324.18,250,324.78,245.21ZM216,264.47a6.62,6.62,0,0,0,0,.87c0,.37-.2.92.27,1.05s.52-.43.72-.71l9.36-13.22q2.42-3.42,4.83-6.84c.18-.25.55-.53.36-.84s-.66-.17-1-.11a9.92,9.92,0,0,0-2.59.8,18.34,18.34,0,0,0-6.5,5.33A23.11,23.11,0,0,0,216,264.47Zm121.62-22.91c.19,0,.31-.34.47-.61l2.39-4,10.8-18.2c.18-.3.58-.66.37-1a3.28,3.28,0,0,0-1.81-1.11c-.47-.14-.58.45-.77.77q-6.44,10.95-12.86,21.9A1.49,1.49,0,0,0,337.57,241.56ZM301.47,244a20.18,20.18,0,0,0-1.52-1.4c-.41-.31-.65.15-.88.39-3.32,3.43-6.61,6.89-9.94,10.3-.55.56-.43.94.11,1.3s.78,1.29,1.63.41c3.34-3.46,6.72-6.88,10.08-10.32A8.33,8.33,0,0,0,301.47,244ZM277.2,214.55c-.14-.58-.63-.81-1-1.09s-.65.12-.86.38c-2.18,2.61-4.33,5.24-6.52,7.83-.47.55-.4.85.09,1.32s.9.3,1.3-.18c2.2-2.59,4.41-5.17,6.62-7.75C277,214.9,277.08,214.72,277.2,214.55Z" transform="translate(-75 -75)"/><path class="cls-2" d="M130.31,270.5c0-9,2.51-17.52,6.13-25.7,6.59-14.9,17.29-26.21,30.93-34.85a30.44,30.44,0,0,1,9.71-3.71,6.84,6.84,0,0,1,7.18,2.48A12.06,12.06,0,0,1,187,220.23a54.84,54.84,0,0,1-17.72,28.28,9.3,9.3,0,0,1-4,2.25c-2.41.53-4.24-.47-5.74-2.25-2.24-2.66-2.24-2.68.59-4.55a71.68,71.68,0,0,0,15.69-13.33,42.08,42.08,0,0,0,8-14.22,1.81,1.81,0,0,0,.19-1.15c-.35-1.13-.9-1.39-2-.89l-6.22,2.87c-5.83,2.69-10.54,6.89-15,11.36a62.67,62.67,0,0,0-17.32,31.34,42.85,42.85,0,0,0-.36,19c1.22,5.39,5.37,7.7,10.6,5.86a34.64,34.64,0,0,0,11.7-7.17c6.19-5.57,11.13-12.19,15.85-19,2.91-4.2,5.58-8.57,8.79-12.55.16-.2.33-.39.48-.59a.57.57,0,0,1,.84-.17c.32.18.51.36.39.77a13.55,13.55,0,0,1-1.13,3.39c-5.2,8.82-10.72,17.41-17.45,25.16-5.11,5.88-10.65,11.3-17.29,15.45a17.22,17.22,0,0,1-12.47,2.68c-5.14-.93-8.47-4.19-10.63-8.77a28.92,28.92,0,0,1-2.45-11.51C130.29,271.81,130.31,271.16,130.31,270.5Z" transform="translate(-75 -75)"/><path class="cls-2" d="M286.48,280.56H252.35l-1.2,0c-.48,0-.69-.31-.85-.71s0-.66.33-.93a5.87,5.87,0,0,1,4.75-1.6c2.92.22,5.86.14,8.8.21l29.54.66q8.25.19,16.51.43c3.29.09,6.59.22,9.88.33a2.66,2.66,0,0,1,1.91.91c.14.15.38.3.26.54s-.38.16-.58.17-.58,0-.87,0Z" transform="translate(-75 -75)"/></svg>